# xmcd
#
# Track frame offsets: 
#        150
#        13201
#        39080
#        59155
#        81546
#        106030
#        138403
#        152867
#        168050
#        185958
#        204856
#        221897
#        244182
#        272324
#        292705
#        308963
#        326446
#
# Disc length: 4655 seconds
#
# Revision: 0
# Processed by: cddbd v1.5.2PL0 Copyright (c) Steve Scherf et al.
# Submitted via: ExactAudioCopyFreeDBPlugin 1.0
#
DISCID=f0122d11
DTITLE=Various Artist - Free Soul Grand Gallery ～ Chill-Out Mellow Lo
DTITLE=vers
DYEAR=2011
DGENRE=Soul
TTITLE0=曽我部恵一 - 個人的メッセージ
TTITLE1=Audio Arts Recordings - S.O.U.N.D
TTITLE2=Dr. Echo-Logic - Seagulls In The Sky
TTITLE3=Kabia B - Another Star
TTITLE4=The Sound Providers - Jazz At The Cove
TTITLE5=Monday Michiru - You Are The Universe
TTITLE6=中塚武 - ひこうき雲
TTITLE7=山下洋グループ - Back On My Feet
TTITLE8=Lukie D - It's A Shame
TTITLE9=Urban Blues Quartet - Valdez In The Country
TTITLE10=Richie Stephans - Overjoyed
TTITLE11=Lovers Rock Nite Crew - Love Is Stronger Than Pride
TTITLE12=Icchie - DECEMBER
TTITLE13=Gen Tamura - Over The Rainbow
TTITLE14=TICA - 2000 Miles
TTITLE15=NANASE - What's Going On
TTITLE16=佐井重昭 - Nostalgic Medley - Twilight Time ～ These Foolish Thing
TTITLE16=～ You're My Everything
EXTD=
EXTT0=
EXTT1=
EXTT2=
EXTT3=
EXTT4=
EXTT5=
EXTT6=
EXTT7=
EXTT8=
EXTT9=
EXTT10=
EXTT11=
EXTT12=
EXTT13=
EXTT14=
EXTT15=
EXTT16=
PLAYORDER=
